<svg xmlns="http://www.w3.org/2000/svg" viewBox="0 0 144.77 144.77">
  <defs>
    <style>
      .cls-1 {
        fill: none;
        stroke: #eb6568;
        stroke-miterlimit: 10;
        stroke-width: 2px;
      }

      .cls-2 {
        fill: #eb6568;
      }
    </style>
  </defs>
  <title>Asset 1</title>
  <g id="Layer_2" data-name="Layer 2">
    <g id="Layer_1-2" data-name="Layer 1">
      <g>
        <circle class="cls-1" cx="72.38" cy="72.38" r="71.38"/>
        <path class="cls-2" d="M84.94,90.71l.87.05L83.38,48.33,58.94,34.83,56.82,59.26a18.38,18.38,0,0,1,2.54,1.89l-1.55,1.76c-.4-.35-.81-.68-1.22-1l-3,34.9,33.35,13.11-1-16.83c-.4,0-.81,0-1.2-.06ZM59.75,64.89l1.77-1.54a30.26,30.26,0,0,1,2.22,2.92L61.8,67.58A28,28,0,0,0,59.75,64.89ZM63.29,70l2-1.15c.57,1,1.12,2.1,1.64,3.23l-2.13,1C64.35,72,63.83,71,63.29,70ZM66,75.71l2.19-.86c.57,1.46,1,2.66,1.2,3.42L67.11,79C66.89,78.25,66.51,77.1,66,75.71Zm4.69,9.12a34.6,34.6,0,0,1-2.1-3l2-1.26a32.76,32.76,0,0,0,2,2.77Zm4.83,4.71a23.28,23.28,0,0,1-2.81-2.42l1.67-1.65a20.56,20.56,0,0,0,2.52,2.17Zm6.16,3a18,18,0,0,1-3.51-1.34l1.06-2.09a15.85,15.85,0,0,0,3.05,1.17Z"/>
        <path class="cls-2" d="M32.34,45.39l-10,64L50.92,97l5.87-62.2ZM42,63a3.48,3.48,0,1,1,3-5.31c.49-.14,1-.27,1.46-.36l.45,2.3a14.66,14.66,0,0,0-1.42.36A3.48,3.48,0,0,1,42,63Zm7.54-3.61,0-2.35a13.77,13.77,0,0,1,3.78.61l-.69,2.24A11.39,11.39,0,0,0,49.57,59.43Z"/>
        <path class="cls-2" d="M117,69.63l-4.56-23.44-1.86-9.6-25,11.74L88,90.69l.28,0L88.48,93l-.39,0,1,16.91L122.4,97.42ZM91.52,92.46,91,90.18a24.65,24.65,0,0,0,3.2-1L95,91.33A27.25,27.25,0,0,1,91.52,92.46Zm6.27-2.38L96.73,88c1-.5,2-1.07,3-1.69l1.26,2C99.91,88.93,98.85,89.54,97.8,90.07Zm5.64-3.53L102,84.66c1.18-.88,2-1.61,2.38-1.95L106,84.47C105.55,84.85,104.68,85.61,103.44,86.54Zm5.91-3.83a7.42,7.42,0,1,1,7.42-7.42A7.42,7.42,0,0,1,109.35,82.71Z"/>
      </g>
    </g>
  </g>
</svg>
