<svg xmlns="http://www.w3.org/2000/svg" viewBox="0 0 144.77 144.77">
  <defs>
    <style>
      .cls-1 {
        fill: #eb6568;
      }

      .cls-2 {
        fill: none;
        stroke: #eb6568;
        stroke-miterlimit: 10;
        stroke-width: 2px;
      }
    </style>
  </defs>
  <title>Asset 3</title>
  <g id="Layer_2" data-name="Layer 2">
    <g id="Layer_1-2" data-name="Layer 1">
      <g>
        <g>
          <path class="cls-1" d="M98.73,38.35v-1A4.77,4.77,0,0,0,94,32.59l-4.77,0-12,0H74.9l-7.19-4.79L51,27.68a4.77,4.77,0,0,0-4.79,4.75l0,5.74A4.55,4.55,0,0,0,43.72,42l0,14.41v2.34l0,14.41a4.77,4.77,0,0,0,4.75,4.79l47.89.16A4.77,4.77,0,0,0,101,73.3l0-14.41V56.56l0-14.41A4.56,4.56,0,0,0,98.73,38.35Zm-2.33-1L48.5,37.21c-.66,0-1.08.43-1.66.68a4.56,4.56,0,0,1,4.1-3.1l4.77,0,12,0L94,34.92A4.56,4.56,0,0,1,98,38.05C97.48,37.81,97.06,37.37,96.4,37.36Z"/>
          <g>
            <path class="cls-1" d="M92.62,95.49V94a10.71,10.71,0,0,0-.4-1.92V92a110.49,110.49,0,0,1,11.52-5.61,4.65,4.65,0,0,1,4.44.32,29.43,29.43,0,0,0-3.13,1.4,109.63,109.63,0,0,0-11.62,6.82A8,8,0,0,0,92.62,95.49Z"/>
            <path class="cls-1" d="M100.83,84.32c-2.22,1-6.36,2.5-8.38,3.7l-1.31.8c-.1.1-.2.2-.3.2a7.78,7.78,0,0,0-2.11-1.92c1.92-1,6.06-2.4,8-3.2A4.12,4.12,0,0,1,100.83,84.32Z"/>
            <path class="cls-1" d="M38.28,88.93l-8,.47a4.8,4.8,0,0,0-4.45,5l1.22,18.22a4.8,4.8,0,0,0,5,4.45l8-.47A4.2,4.2,0,0,0,43.71,114l34.76,1.59a17.88,17.88,0,0,0,10.84-1.93l1-.49,26.35-15.87a4.5,4.5,0,0,0,2.28-3.64,3.8,3.8,0,0,0-3.43-4.15c-1.87-.1-5.52,2-6.51,2.44a111.18,111.18,0,0,0-11.84,7.15,9.08,9.08,0,0,0-.79.49,16.84,16.84,0,0,1-4.73,2.05c-9.56,2.14-23.45,2.29-23.45,2.29h-.69a1.2,1.2,0,0,1-1.28-1,1.23,1.23,0,0,1,1.09-1.38l20.69-2a4.45,4.45,0,0,0,3.86-4.91,4.54,4.54,0,0,0-4.71-4.15L68.7,90.21a13.55,13.55,0,0,1-4.43-.8c-11.81-3.58-18.51-.26-22.06,1.21A4.78,4.78,0,0,0,38.28,88.93Z"/>
            <circle class="cls-1" cx="34.17" cy="110.23" r="2.5" transform="translate(-76.16 144.04) rotate(-89.81)"/>
          </g>
        </g>
        <circle class="cls-2" cx="72.38" cy="72.38" r="71.38" transform="translate(-0.23 144.53) rotate(-89.81)"/>
      </g>
    </g>
  </g>
</svg>
