<svg xmlns="http://www.w3.org/2000/svg" viewBox="0 0 144.77 144.77">
  <defs>
    <style>
      .cls-1 {
        fill: none;
        stroke: #eb6568;
        stroke-miterlimit: 10;
        stroke-width: 2px;
      }

      .cls-2 {
        fill: #eb6568;
      }
    </style>
  </defs>
  <title>Asset 2</title>
  <g id="Layer_2" data-name="Layer 2">
    <g id="Layer_1-2" data-name="Layer 1">
      <g>
        <circle class="cls-1" cx="72.38" cy="72.38" r="71.38"/>
        <g>
          <path class="cls-2" d="M112.87,112.76h-3V85.22h.06l-1.88-39.34a.34.34,0,0,0-.35-.3h-10a.33.33,0,0,0-.35.3L96,75,84.79,69.4c-.16-.08-.29,0-.29.15V81.74L59.87,69.4c-.16-.08-.29,0-.29.15V81.62L35.18,69.4c-.16-.08-.29,0-.29.15v15h0v28.25h-3a.32.32,0,0,0-.34.3v4a.32.32,0,0,0,.34.3h81a.32.32,0,0,0,.34-.3v-4a.32.32,0,0,0-.34-.3ZM60.61,100.62a.34.34,0,0,1-.34.35H46.79a.34.34,0,0,1-.34-.35v-8.3a.34.34,0,0,1,.34-.35H60.28a.34.34,0,0,1,.34.35Zm18.85-8.3v8.3a.34.34,0,0,1-.34.35H65.64a.34.34,0,0,1-.34-.35v-8.3a.34.34,0,0,1,.34-.35H79.13a.34.34,0,0,1,.34.35Zm18.85,8.3A.34.34,0,0,1,98,101H84.49a.34.34,0,0,1-.34-.35v-8.3a.34.34,0,0,1,.34-.35H98a.34.34,0,0,1,.34.35Z"/>
          <path class="cls-2" d="M102.59,42.12l.13-1.27c.31-21.29-20.38-.6-26.45-13.43l1.28,4C82.42,43.56,99.5,27.39,102.59,42.12Z"/>
          <path class="cls-2" d="M102.64,30.55l.09-.83c.2-13.91-13.31-.39-17.28-8.78l.84,2.6C89.46,31.5,100.62,20.94,102.64,30.55Z"/>
        </g>
      </g>
    </g>
  </g>
</svg>
