<svg xmlns="http://www.w3.org/2000/svg" viewBox="0 0 144.77 144.77">
  <defs>
    <style>
      .cls-1 {
        fill: none;
        stroke: #eb6568;
        stroke-miterlimit: 10;
        stroke-width: 2px;
      }

      .cls-2 {
        fill: #eb6568;
      }
    </style>
  </defs>
  <title>Asset 4</title>
  <g id="Layer_2" data-name="Layer 2">
    <g id="Layer_1-2" data-name="Layer 1">
      <g>
        <circle class="cls-1" cx="72.38" cy="72.38" r="71.38"/>
        <path class="cls-2" d="M50.37,71.39h.15C66.69,71.22,64.38,48,64.38,48c-.62-15.6-12.78-15.44-13.86-15.44-1.23,0-13.24-.17-13.86,15.44C36.66,47.82,34.2,71.06,50.37,71.39Z"/>
        <path class="cls-2" d="M80.08,98.77v13.44H21V95.45h0c.15-5,1.08-8.47,5.7-11.78a145.42,145.42,0,0,1,13.4-8l5.54,19.09,3.23-10c-5.7-8.63.46-9.13,1.54-9.13h0c1.08,0,7.24.5,1.54,9.13l3.23,10L60.68,75.7a145.43,145.43,0,0,1,13.4,8c4.77,3.15,5.7,6.64,5.7,11.78h0v.33A9.35,9.35,0,0,1,80.08,98.77Z"/>
        <path class="cls-2" d="M21,95.29Z"/>
        <path class="cls-2" d="M79.93,95.29Z"/>
        <path class="cls-2" d="M125.2,95.29Z"/>
        <path class="cls-2" d="M85.16,75.7s9.79,14.86,20.63,0l.63,24.17H87.52l-4-17.08Z"/>
        <path class="cls-2" d="M95.36,71.27c18.11,1.6,19.67-3.58,19.67-3.58-.68-.22-5.76-2.17-4.76-11.63,1.07-10.14-1.29-19-9.88-18.24,0,0-3.76-4.26-11.17-1.62-2.58.91-9.34,3.24-9,17.23.25,10.87-3.07,13.35-4.56,13.92l-.7.17m0,0s2.31,5.36,20.41,3.76h0"/>
        <path class="cls-2" d="M94.86,73.65H95c14.43-.14,12.37-19.79,12.37-19.79C106.82,40.66,96,40.81,95,40.81s-11.82-.14-12.37,13.05C82.63,53.72,80.43,73.37,94.86,73.65Z"/>
        <path class="cls-2" d="M119.19,83.67a145.43,145.43,0,0,0-13.4-8l-4.67,16.09h0l-.87,3H90.71l-.87-3h0L85.16,75.7s-4,2-8.78,5a15.39,15.39,0,0,1,5.54,6.47A18.58,18.58,0,0,1,83.47,95v3.82l-.31,13.44h41.73V95.45C124.89,90.31,124,86.82,119.19,83.67Z"/>
        <circle class="cls-2" cx="95.36" cy="87.08" r="1.83"/>
        <circle class="cls-2" cx="95.36" cy="93.59" r="1.83"/>
      </g>
    </g>
  </g>
</svg>
