<svg xmlns="http://www.w3.org/2000/svg" viewBox="0 0 169.26 30.24">
  <defs>
    <style>
      .cls-1 {
        fill: none;
        stroke: #fff;
        stroke-miterlimit: 10;
        stroke-width: 1.33px;
      }

      .cls-2 {
        fill: #242d5c;
      }

      .cls-3 {
        fill: #fff;
      }

      .cls-4 {
        fill: #f66;
      }
    </style>
  </defs>
  <title>Asset 2</title>
  <g id="Layer_2" data-name="Layer 2">
    <g id="Layer_1-2" data-name="Layer 1">
      <g>
        <rect class="cls-1" x="3.39" y="3.39" width="26.18" height="26.18" transform="translate(32.96 32.96) rotate(-180)"/>
        <line class="cls-1" x1="16.48" y1="16.48" x2="3.39" y2="3.39"/>
        <circle class="cls-2" cx="3.39" cy="3.39" r="3.39"/>
        <path class="cls-3" d="M51.42,27.26,52,24.6l3.41-12.18h1.36L52.27,28H50.41L45.94,13.82,41.39,28H39.44L34.91,12.42h1.52l3.32,12,.77,3,.74-2.78,3.89-12.16h1.6l3.81,12Z"/>
        <path class="cls-3" d="M59,17h1.33V28H59Zm1.3-4.83v1.33H59.1V12.18Z"/>
        <path class="cls-3" d="M73.56,28H71.79l-6.06-5.72V28H64.4V11.86h1.33v10L71.35,17h1.74l-5.84,5.14Z"/>
        <path class="cls-3" d="M76,17h1.33V28H76Zm1.3-4.83v1.33H76V12.18Z"/>
        <path class="cls-4" d="M88.2,28.21a8.15,8.15,0,0,1-2.93-.53,7.81,7.81,0,0,1-2.48-1.51,7,7,0,0,1-1.74-2.53,8.8,8.8,0,0,1-.65-3.44,9.48,9.48,0,0,1,.43-2.92A7.23,7.23,0,0,1,82,15a7.69,7.69,0,0,1,1.71-1.6,7.14,7.14,0,0,1,2.05-1A8,8,0,0,1,88,12.13a8.15,8.15,0,0,1,5.19,1.68L92.12,15.7a6.72,6.72,0,0,0-3.91-1.23,4.62,4.62,0,0,0-1.89.39A4.94,4.94,0,0,0,84.75,16a5.22,5.22,0,0,0-1.09,1.81,6.81,6.81,0,0,0-.41,2.39,5.82,5.82,0,0,0,1.45,4.13,4.8,4.8,0,0,0,3.68,1.56,6.71,6.71,0,0,0,4.3-1.57l.91,2.15A8.5,8.5,0,0,1,88.2,28.21Z"/>
        <path class="cls-4" d="M96.35,28V19.79q0-.64-.05-1.34t-.11-1.07L96.14,17H99v1.44a5.67,5.67,0,0,1,1.3-1.29,2.56,2.56,0,0,1,1.46-.43,4.29,4.29,0,0,1,1.09.16v2.32a4.27,4.27,0,0,0-1.33-.24,2.39,2.39,0,0,0-1.8.72,2.86,2.86,0,0,0-.7,2.07V28Z"/>
        <path class="cls-4" d="M110.07,28.22a5.93,5.93,0,0,1-4.36-1.58,5.56,5.56,0,0,1-1.6-4.14,6.24,6.24,0,0,1,.38-2.19,5.85,5.85,0,0,1,1.08-1.84,4.93,4.93,0,0,1,1.77-1.27,5.86,5.86,0,0,1,2.38-.47,5.38,5.38,0,0,1,2.28.45,3.75,3.75,0,0,1,1.54,1.26,5.75,5.75,0,0,1,.84,1.81,8.51,8.51,0,0,1,.27,2.22,1.57,1.57,0,0,1-.05.47h-7.69a3.1,3.1,0,0,0,1,2.37,3.65,3.65,0,0,0,2.43.77,6,6,0,0,0,3.46-1.18l.72,1.92a7.94,7.94,0,0,1-2.09,1.05A7.65,7.65,0,0,1,110.07,28.22Zm-3.13-7h5.45a3,3,0,0,0-.87-1.78,2.34,2.34,0,0,0-1.65-.62,2.89,2.89,0,0,0-1.91.64A3.12,3.12,0,0,0,106.94,21.18Z"/>
        <path class="cls-4" d="M122.39,28.22a5.72,5.72,0,0,1-2.39-.48,4.53,4.53,0,0,1-1.7-1.28,5.8,5.8,0,0,1-1-1.78,6.42,6.42,0,0,1-.33-2.06,6.87,6.87,0,0,1,.34-2.17,6.13,6.13,0,0,1,1-1.87,4.6,4.6,0,0,1,1.74-1.34,5.79,5.79,0,0,1,2.45-.5,3.57,3.57,0,0,1,3.06,1.44V17h2.6V28h-2.66v-1.5A3.64,3.64,0,0,1,122.39,28.22Zm.33-2.14a2.57,2.57,0,0,0,2.24-1,4.41,4.41,0,0,0,.7-2.61,4.25,4.25,0,0,0-.74-2.64,2.66,2.66,0,0,0-2.25-1,2.73,2.73,0,0,0-2.26,1,4,4,0,0,0-.79,2.62,4.09,4.09,0,0,0,.79,2.63A2.78,2.78,0,0,0,122.73,26.09Z"/>
        <path class="cls-4" d="M137.52,28h-1.07q-.64,0-1.11,0a6.78,6.78,0,0,1-1-.14,3.47,3.47,0,0,1-.84-.28,2.91,2.91,0,0,1-.67-.48,2.25,2.25,0,0,1-.51-.72,4.43,4.43,0,0,1-.3-1,7.19,7.19,0,0,1-.11-1.35V18.79h-2.29V17H132V14.45l2.53-.78V17h2.86v1.77h-2.86v5.33a3.43,3.43,0,0,0,.08.83,1.42,1.42,0,0,0,.24.52,1,1,0,0,0,.54.3,4.76,4.76,0,0,0,.83.13q.45,0,1.26,0Z"/>
        <path class="cls-4" d="M139.75,14.75V12.42h2.56v2.33Zm0,13.23V17h2.55V28Z"/>
        <path class="cls-4" d="M150.75,28.22a6.63,6.63,0,0,1-2.55-.47,4.76,4.76,0,0,1-1.81-1.26,5.55,5.55,0,0,1-1-1.82A6.54,6.54,0,0,1,145,22.5a6.62,6.62,0,0,1,.36-2.22,5.51,5.51,0,0,1,1.06-1.83,4.8,4.8,0,0,1,1.82-1.25,6.56,6.56,0,0,1,2.52-.46,6.69,6.69,0,0,1,2.54.45,4.53,4.53,0,0,1,1.78,1.25,5.38,5.38,0,0,1,1,1.83,7.2,7.2,0,0,1,.34,2.25,6.48,6.48,0,0,1-.35,2.15,5.66,5.66,0,0,1-1,1.81,4.69,4.69,0,0,1-1.78,1.27A6.34,6.34,0,0,1,150.75,28.22Zm-.05-2.14a3,3,0,0,0,1.37-.29A2.32,2.32,0,0,0,153,25a3.93,3.93,0,0,0,.5-1.15,5.35,5.35,0,0,0,.17-1.37,4.21,4.21,0,0,0-.74-2.57,2.57,2.57,0,0,0-2.21-1,2.77,2.77,0,0,0-1.68.5,2.81,2.81,0,0,0-1,1.29,5,5,0,0,0-.3,1.8,5.29,5.29,0,0,0,.28,1.78,2.81,2.81,0,0,0,1,1.31A2.74,2.74,0,0,0,150.7,26.09Z"/>
        <path class="cls-4" d="M159.26,28V21.19q0-1.16-.05-2.21t-.11-1.5L159,17h2.81v1.46a3.62,3.62,0,0,1,1.51-1.3,4.3,4.3,0,0,1,1.83-.44,5,5,0,0,1,1.67.25,3.26,3.26,0,0,1,1.27.81,3.61,3.61,0,0,1,.84,1.54,8.56,8.56,0,0,1,.29,2.38V28h-2.65V21.55a3.52,3.52,0,0,0-.45-2.06,1.76,1.76,0,0,0-1.5-.6,2.47,2.47,0,0,0-.84.17,4,4,0,0,0-.89.48,2.49,2.49,0,0,0-.72.8,2.12,2.12,0,0,0-.29,1.08V28Z"/>
        <circle class="cls-4" cx="3.39" cy="3.39" r="2.58"/>
        <circle class="cls-2" cx="16.48" cy="16.51" r="5.95"/>
        <circle class="cls-4" cx="16.48" cy="16.48" r="4.99"/>
      </g>
    </g>
  </g>
</svg>
