<svg version="1" xmlns="http://www.w3.org/2000/svg" width="682.667" height="682.667" viewBox="0 0 512.000000 512.000000"><path d="M44.8 13.1c-6.4 1.5-15.1 6.5-20.1 11.5C7.6 41.8 8 69.9 25.7 86c12.3 11.2 28.7 14.5 44.1 8.8 14-5.1 23.6-16.4 26.8-31.3 4.3-20.4-6.9-41.1-26.3-48.6-6.4-2.4-19-3.3-25.5-1.8z"/><path d="M113 43.8c-2.5.3-2.5.3-2.5 11.2v11H478v412H66V110.5H55c-10.3 0-11 .1-11 2-.1 2.6-.1 378.9-.1 383.7l.1 3.8h456V272c0-181.7-.3-228-1.2-228-5.8-.3-383.9-.4-385.8-.2z"/><path d="M99.8 88.2c-2 3-7.5 8.7-11 11.4l-2.6 2.1 53.6 53.6c29.6 29.5 54 54 54.4 54.3.7.7 15.8-13.4 15.8-14.6 0-.4-105.8-106.6-108.4-108.8-.2-.1-1 .8-1.8 2zM255.5 190.9c-25.5 5.4-46.1 21.1-57.2 43.6-6.9 14-9.4 25.1-8.9 40.5 1.2 35 24.5 65.6 58 75.9C293.2 365 342 337 352.6 290.4c1.8-7.9 2.4-25.6 1.1-31.9-1.2-6.1-1.7-7.9-3.3-12.9-12.8-39.1-54.6-63.2-94.9-54.7z"/></svg>