<svg xmlns="http://www.w3.org/2000/svg" viewBox="0 0 24.09 43.15">
  <defs>
    <style>
      .cls-1 {
        fill: #eb5b55;
      }

      .cls-2 {
        fill: #fff;
      }
    </style>
  </defs>
  <title>Asset 2</title>
  <g id="Layer_2" data-name="Layer 2">
    <g id="Layer_1-2" data-name="Layer 1">
      <g>
        <g>
          <circle class="cls-1" cx="12.04" cy="11.87" r="11.87"/>
          <path class="cls-2" d="M12.11,3.8a1,1,0,0,0-1.05,1.05v11L6.83,11.66a1.06,1.06,0,0,0-1.5,1.5l6.78,6.78,6.67-6.78a1.06,1.06,0,1,0-1.52-1.47l-4.12,4.21v-11A1,1,0,0,0,12.11,3.8Z"/>
          <path class="cls-1" d="M0,27.89a1.35,1.35,0,0,0,1.35,1.35H22.74a1.35,1.35,0,0,0,0-2.7H1.35A1.35,1.35,0,0,0,0,27.89Z"/>
        </g>
        <g>
          <path class="cls-1" d="M10.62,33.56v1.88H6.18v2.07H10.4v1.88H6.18v3.76H4V33.56Z"/>
          <path class="cls-1" d="M20.21,36.74a2.83,2.83,0,0,1-1.82,3l2.43,3.43H18.18l-2.13-3.06H14.57v3.06H12.43V33.56h3.64a5.22,5.22,0,0,1,3.19.75A2.91,2.91,0,0,1,20.21,36.74Zm-2.58,1.14a1.45,1.45,0,0,0,.4-1.13,1.21,1.21,0,0,0-.41-1.06,2.63,2.63,0,0,0-1.44-.29H14.57v2.84h1.56A2.3,2.3,0,0,0,17.63,37.88Z"/>
        </g>
      </g>
    </g>
  </g>
</svg>
