<svg xmlns="http://www.w3.org/2000/svg" viewBox="0 0 24.09 43.15">
  <defs>
    <style>
      .cls-1 {
        fill: #232d5c;
      }

      .cls-2 {
        fill: #fff;
      }
    </style>
  </defs>
  <title>Asset 3</title>
  <g id="Layer_2" data-name="Layer 2">
    <g id="Layer_1-2" data-name="Layer 1">
      <g>
        <g>
          <circle class="cls-1" cx="12.04" cy="11.87" r="11.87"/>
          <path class="cls-2" d="M12.11,3.8a1,1,0,0,0-1.05,1.05v11L6.83,11.66a1.06,1.06,0,0,0-1.5,1.5l6.78,6.78,6.67-6.78a1.06,1.06,0,1,0-1.52-1.47l-4.12,4.21v-11A1,1,0,0,0,12.11,3.8Z"/>
          <path class="cls-1" d="M0,27.89a1.35,1.35,0,0,0,1.35,1.35H22.74a1.35,1.35,0,0,0,0-2.7H1.35A1.35,1.35,0,0,0,0,27.89Z"/>
        </g>
        <g>
          <path class="cls-1" d="M10,33.56v1.91H5.27v2H9.57v1.83H5.27v2H10.2v1.89H3.13V33.56Z"/>
          <path class="cls-1" d="M18.81,33.56H21v9.59H18.81l-4.57-6v6H12.1V33.56h2l4.71,6.17Z"/>
        </g>
      </g>
    </g>
  </g>
</svg>
