<svg xmlns="http://www.w3.org/2000/svg" viewBox="0 0 214.4 38.3">
  <defs>
    <style>
      .cls-1 {
        fill: none;
        stroke: #fff;
        stroke-miterlimit: 10;
        stroke-width: 1.68px;
      }

      .cls-2 {
        fill: #232d5c;
      }

      .cls-3 {
        fill: #fff;
      }

      .cls-4 {
        fill: #ec6669;
      }
    </style>
  </defs>
  <title>Asset 1</title>
  <g id="Layer_2" data-name="Layer 2">
    <g id="Layer_1-2" data-name="Layer 1">
      <g>
        <rect class="cls-1" x="4.29" y="4.29" width="33.16" height="33.16" transform="translate(41.75 41.75) rotate(-180)"/>
        <line class="cls-1" x1="20.88" y1="20.88" x2="4.29" y2="4.29"/>
        <circle class="cls-2" cx="4.29" cy="4.29" r="4.29"/>
        <path class="cls-3" d="M65.13,34.53l.79-3.37,4.32-15.43H72L66.2,35.44H63.85L58.19,17.51,52.42,35.44H50L44.22,15.73h1.92l4.21,15.15,1,3.78.93-3.52,4.93-15.4h2L64,30.93Z"/>
        <path class="cls-3" d="M74.77,21.55h1.68V35.44H74.77Zm1.65-6.12v1.68H74.86V15.43Z"/>
        <path class="cls-3" d="M93.18,35.44H90.93L83.26,28.2v7.24H81.58V15h1.68V27.74l7.12-6.19h2.21l-7.4,6.51Z"/>
        <path class="cls-3" d="M96.22,21.55H97.9V35.44H96.22Zm1.65-6.12v1.68H96.32V15.43Z"/>
        <path class="cls-4" d="M111.72,35.74a10.32,10.32,0,0,1-3.71-.67,9.9,9.9,0,0,1-3.14-1.91,8.8,8.8,0,0,1-2.2-3.2,11.15,11.15,0,0,1-.82-4.35,12,12,0,0,1,.55-3.7A9.16,9.16,0,0,1,103.88,19,9.75,9.75,0,0,1,106,17a9,9,0,0,1,2.6-1.23,10.1,10.1,0,0,1,2.8-.39A10.33,10.33,0,0,1,118,17.49l-1.34,2.4a8.51,8.51,0,0,0-5-1.56,5.85,5.85,0,0,0-2.39.5,6.26,6.26,0,0,0-2,1.41A6.61,6.61,0,0,0,106,22.53a8.62,8.62,0,0,0-.51,3,7.37,7.37,0,0,0,1.84,5.24,6.09,6.09,0,0,0,4.66,2,8.49,8.49,0,0,0,5.44-2l1.15,2.72A10.77,10.77,0,0,1,111.72,35.74Z"/>
        <path class="cls-4" d="M122,35.44V25.07q0-.81-.07-1.69T121.84,22l-.07-.47h3.57v1.83A7.18,7.18,0,0,1,127,21.75a3.25,3.25,0,0,1,1.85-.55,5.44,5.44,0,0,1,1.38.2v2.94a5.41,5.41,0,0,0-1.68-.3,3,3,0,0,0-2.27.91,3.63,3.63,0,0,0-.88,2.63v7.86Z"/>
        <path class="cls-4" d="M139.43,35.75a7.51,7.51,0,0,1-5.53-2,7,7,0,0,1-2-5.24,7.91,7.91,0,0,1,.49-2.77,7.41,7.41,0,0,1,1.37-2.33A6.24,6.24,0,0,1,136,21.8a7.43,7.43,0,0,1,3-.6,6.82,6.82,0,0,1,2.88.57,4.76,4.76,0,0,1,1.95,1.59,7.29,7.29,0,0,1,1.06,2.29,10.78,10.78,0,0,1,.34,2.82,2,2,0,0,1-.07.6h-9.75a3.93,3.93,0,0,0,1.24,3,4.62,4.62,0,0,0,3.08,1,7.58,7.58,0,0,0,4.39-1.49L145,34a10.06,10.06,0,0,1-2.65,1.33A9.7,9.7,0,0,1,139.43,35.75Zm-4-8.92h6.9a3.81,3.81,0,0,0-1.1-2.26,3,3,0,0,0-2.08-.78,3.66,3.66,0,0,0-2.42.81A4,4,0,0,0,135.46,26.83Z"/>
        <path class="cls-4" d="M155,35.75a7.25,7.25,0,0,1-3-.61,5.73,5.73,0,0,1-2.15-1.62,7.34,7.34,0,0,1-1.23-2.26,8.13,8.13,0,0,1-.42-2.61,8.7,8.7,0,0,1,.43-2.75,7.76,7.76,0,0,1,1.27-2.37,5.83,5.83,0,0,1,2.2-1.69,7.34,7.34,0,0,1,3.1-.63A4.52,4.52,0,0,1,159.06,23V21.55h3.29V35.44H159V33.54A4.61,4.61,0,0,1,155,35.75Zm.42-2.71a3.25,3.25,0,0,0,2.84-1.24,5.58,5.58,0,0,0,.89-3.31,5.38,5.38,0,0,0-.94-3.35,3.37,3.37,0,0,0-2.85-1.23,3.46,3.46,0,0,0-2.86,1.23,5.12,5.12,0,0,0-1,3.32,5.18,5.18,0,0,0,1,3.33A3.53,3.53,0,0,0,155.45,33Z"/>
        <path class="cls-4" d="M174.2,35.43h-1.35q-.81,0-1.41,0a8.59,8.59,0,0,1-1.22-.18,4.4,4.4,0,0,1-1.07-.36,3.69,3.69,0,0,1-.85-.6,2.84,2.84,0,0,1-.65-.91,5.61,5.61,0,0,1-.39-1.28,9.11,9.11,0,0,1-.14-1.71V23.8h-2.9V21.55h3V18.3l3.21-1v4.24h3.63V23.8h-3.63v6.75a4.35,4.35,0,0,0,.1,1,1.8,1.8,0,0,0,.3.66,1.21,1.21,0,0,0,.68.39,6,6,0,0,0,1,.16q.57,0,1.6,0Z"/>
        <path class="cls-4" d="M177,18.68v-3h3.25v3Zm0,16.76V21.55h3.23V35.44Z"/>
        <path class="cls-4" d="M191,35.75a8.4,8.4,0,0,1-3.23-.59,6,6,0,0,1-2.29-1.6,7,7,0,0,1-1.33-2.3,8.29,8.29,0,0,1-.45-2.77,8.39,8.39,0,0,1,.46-2.81,7,7,0,0,1,1.35-2.32,6.08,6.08,0,0,1,2.3-1.59,8.31,8.31,0,0,1,3.19-.58,8.47,8.47,0,0,1,3.22.57,5.73,5.73,0,0,1,2.26,1.58,6.81,6.81,0,0,1,1.28,2.31,9.12,9.12,0,0,1,.43,2.85,8.21,8.21,0,0,1-.45,2.73,7.17,7.17,0,0,1-1.31,2.29,6,6,0,0,1-2.26,1.61A8,8,0,0,1,191,35.75ZM190.89,33a3.84,3.84,0,0,0,1.73-.37,2.93,2.93,0,0,0,1.17-1,5,5,0,0,0,.64-1.46,6.77,6.77,0,0,0,.21-1.73,5.34,5.34,0,0,0-.94-3.26,3.25,3.25,0,0,0-2.79-1.27,3.51,3.51,0,0,0-2.12.63,3.56,3.56,0,0,0-1.25,1.63,6.3,6.3,0,0,0-.39,2.27,6.69,6.69,0,0,0,.36,2.26,3.56,3.56,0,0,0,1.23,1.66A3.46,3.46,0,0,0,190.89,33Z"/>
        <path class="cls-4" d="M201.73,35.44v-8.6q0-1.47-.07-2.79t-.14-1.9l-.07-.6H205v1.85a4.58,4.58,0,0,1,1.91-1.64,5.45,5.45,0,0,1,2.32-.56,6.36,6.36,0,0,1,2.11.32,4.13,4.13,0,0,1,1.6,1,4.57,4.57,0,0,1,1.06,2,10.84,10.84,0,0,1,.36,3v7.92H211V27.29a4.46,4.46,0,0,0-.57-2.61,2.23,2.23,0,0,0-1.9-.77,3.12,3.12,0,0,0-1.07.22,5,5,0,0,0-1.13.6,3.16,3.16,0,0,0-.91,1,2.69,2.69,0,0,0-.37,1.37v8.31Z"/>
        <circle class="cls-4" cx="4.29" cy="4.29" r="3.27"/>
        <circle class="cls-2" cx="20.88" cy="20.91" r="7.53"/>
        <circle class="cls-4" cx="20.88" cy="20.88" r="6.32"/>
      </g>
    </g>
  </g>
</svg>
